<svg id="visual" viewBox="0 0 960 540" width="960" height="540" xmlns="http://www.w3.org/2000/svg" xmlns:xlink="http://www.w3.org/1999/xlink" version="1.1"><path d="M0 321L22.8 327.3C45.7 333.7 91.3 346.3 137 353.5C182.7 360.7 228.3 362.3 274 362.5C319.7 362.7 365.3 361.3 411.2 359.3C457 357.3 503 354.7 548.8 355.2C594.7 355.7 640.3 359.3 686 366.8C731.7 374.3 777.3 385.7 823 379C868.7 372.3 914.3 347.7 937.2 335.3L960 323L960 541L937.2 541C914.3 541 868.7 541 823 541C777.3 541 731.7 541 686 541C640.3 541 594.7 541 548.8 541C503 541 457 541 411.2 541C365.3 541 319.7 541 274 541C228.3 541 182.7 541 137 541C91.3 541 45.7 541 22.8 541L0 541Z" fill="#fa7268"></path><path d="M0 412L22.8 413.2C45.7 414.3 91.3 416.7 137 412C182.7 407.3 228.3 395.7 274 397C319.7 398.3 365.3 412.7 411.2 410.2C457 407.7 503 388.3 548.8 381.7C594.7 375 640.3 381 686 390.5C731.7 400 777.3 413 823 407.8C868.7 402.7 914.3 379.3 937.2 367.7L960 356L960 541L937.2 541C914.3 541 868.7 541 823 541C777.3 541 731.7 541 686 541C640.3 541 594.7 541 548.8 541C503 541 457 541 411.2 541C365.3 541 319.7 541 274 541C228.3 541 182.7 541 137 541C91.3 541 45.7 541 22.8 541L0 541Z" fill="#ef5f67"></path><path d="M0 421L22.8 417.8C45.7 414.7 91.3 408.3 137 411.8C182.7 415.3 228.3 428.7 274 430.2C319.7 431.7 365.3 421.3 411.2 414.3C457 407.3 503 403.7 548.8 403C594.7 402.3 640.3 404.7 686 411.8C731.7 419 777.3 431 823 438.7C868.7 446.3 914.3 449.7 937.2 451.3L960 453L960 541L937.2 541C914.3 541 868.7 541 823 541C777.3 541 731.7 541 686 541C640.3 541 594.7 541 548.8 541C503 541 457 541 411.2 541C365.3 541 319.7 541 274 541C228.3 541 182.7 541 137 541C91.3 541 45.7 541 22.8 541L0 541Z" fill="#e34c67"></path><path d="M0 446L22.8 448.3C45.7 450.7 91.3 455.3 137 456.3C182.7 457.3 228.3 454.7 274 455.2C319.7 455.7 365.3 459.3 411.2 456.7C457 454 503 445 548.8 441.5C594.7 438 640.3 440 686 445.8C731.7 451.7 777.3 461.3 823 466.8C868.7 472.3 914.3 473.7 937.2 474.3L960 475L960 541L937.2 541C914.3 541 868.7 541 823 541C777.3 541 731.7 541 686 541C640.3 541 594.7 541 548.8 541C503 541 457 541 411.2 541C365.3 541 319.7 541 274 541C228.3 541 182.7 541 137 541C91.3 541 45.7 541 22.8 541L0 541Z" fill="#d53867"></path><path d="M0 472L22.8 474.2C45.7 476.3 91.3 480.7 137 485.8C182.7 491 228.3 497 274 496.5C319.7 496 365.3 489 411.2 485C457 481 503 480 548.8 485.5C594.7 491 640.3 503 686 505.5C731.7 508 777.3 501 823 497.7C868.7 494.3 914.3 494.7 937.2 494.8L960 495L960 541L937.2 541C914.3 541 868.7 541 823 541C777.3 541 731.7 541 686 541C640.3 541 594.7 541 548.8 541C503 541 457 541 411.2 541C365.3 541 319.7 541 274 541C228.3 541 182.7 541 137 541C91.3 541 45.7 541 22.8 541L0 541Z" fill="#c62368"></path></svg>