<svg id="visual" viewBox="0 0 900 600" width="900" height="600" xmlns="http://www.w3.org/2000/svg" xmlns:xlink="http://www.w3.org/1999/xlink" version="1.1"><rect x="0" y="0" width="900" height="600" fill="#140021"></rect><path d="M505 0L448 0L448 26L469 26L469 52L514 52L514 78L450 78L450 104L442 104L442 130L488 130L488 157L521 157L521 183L535 183L535 209L481 209L481 235L546 235L546 261L479 261L479 287L454 287L454 313L458 313L458 339L504 339L504 365L477 365L477 391L457 391L457 417L481 417L481 443L473 443L473 470L531 470L531 496L445 496L445 522L519 522L519 548L549 548L549 574L493 574L493 600L0 600L0 574L0 574L0 548L0 548L0 522L0 522L0 496L0 496L0 470L0 470L0 443L0 443L0 417L0 417L0 391L0 391L0 365L0 365L0 339L0 339L0 313L0 313L0 287L0 287L0 261L0 261L0 235L0 235L0 209L0 209L0 183L0 183L0 157L0 157L0 130L0 130L0 104L0 104L0 78L0 78L0 52L0 52L0 26L0 26L0 0L0 0Z" fill="#9900ff"></path><path d="M442 0L454 0L454 26L430 26L430 52L367 52L367 78L433 78L433 104L443 104L443 130L439 130L439 157L378 157L378 183L371 183L371 209L413 209L413 235L399 235L399 261L440 261L440 287L420 287L420 313L408 313L408 339L426 339L426 365L400 365L400 391L379 391L379 417L405 417L405 443L436 443L436 470L427 470L427 496L431 496L431 522L441 522L441 548L371 548L371 574L437 574L437 600L0 600L0 574L0 574L0 548L0 548L0 522L0 522L0 496L0 496L0 470L0 470L0 443L0 443L0 417L0 417L0 391L0 391L0 365L0 365L0 339L0 339L0 313L0 313L0 287L0 287L0 261L0 261L0 235L0 235L0 209L0 209L0 183L0 183L0 157L0 157L0 130L0 130L0 104L0 104L0 78L0 78L0 52L0 52L0 26L0 26L0 0L0 0Z" fill="#8b00e8"></path><path d="M301 0L329 0L329 26L337 26L337 52L354 52L354 78L292 78L292 104L314 104L314 130L370 130L370 157L288 157L288 183L333 183L333 209L358 209L358 235L320 235L320 261L374 261L374 287L380 287L380 313L366 313L366 339L356 339L356 365L313 365L313 391L304 391L304 417L349 417L349 443L296 443L296 470L377 470L377 496L322 496L322 522L325 522L325 548L305 548L305 574L322 574L322 600L0 600L0 574L0 574L0 548L0 548L0 522L0 522L0 496L0 496L0 470L0 470L0 443L0 443L0 417L0 417L0 391L0 391L0 365L0 365L0 339L0 339L0 313L0 313L0 287L0 287L0 261L0 261L0 235L0 235L0 209L0 209L0 183L0 183L0 157L0 157L0 130L0 130L0 104L0 104L0 78L0 78L0 52L0 52L0 26L0 26L0 0L0 0Z" fill="#7e00d1"></path><path d="M294 0L238 0L238 26L275 26L275 52L224 52L224 78L289 78L289 104L276 104L276 130L254 130L254 157L233 157L233 183L211 183L211 209L255 209L255 235L258 235L258 261L227 261L227 287L290 287L290 313L260 313L260 339L251 339L251 365L225 365L225 391L246 391L246 417L256 417L256 443L235 443L235 470L262 470L262 496L253 496L253 522L268 522L268 548L229 548L229 574L254 574L254 600L0 600L0 574L0 574L0 548L0 548L0 522L0 522L0 496L0 496L0 470L0 470L0 443L0 443L0 417L0 417L0 391L0 391L0 365L0 365L0 339L0 339L0 313L0 313L0 287L0 287L0 261L0 261L0 235L0 235L0 209L0 209L0 183L0 183L0 157L0 157L0 130L0 130L0 104L0 104L0 78L0 78L0 52L0 52L0 26L0 26L0 0L0 0Z" fill="#7000bb"></path><path d="M144 0L160 0L160 26L146 26L146 52L157 52L157 78L186 78L186 104L196 104L196 130L162 130L162 157L152 157L152 183L183 183L183 209L161 209L161 235L159 235L159 261L140 261L140 287L188 287L188 313L172 313L172 339L177 339L177 365L201 365L201 391L193 391L193 417L197 417L197 443L159 443L159 470L137 470L137 496L210 496L210 522L184 522L184 548L172 548L172 574L195 574L195 600L0 600L0 574L0 574L0 548L0 548L0 522L0 522L0 496L0 496L0 470L0 470L0 443L0 443L0 417L0 417L0 391L0 391L0 365L0 365L0 339L0 339L0 313L0 313L0 287L0 287L0 261L0 261L0 235L0 235L0 209L0 209L0 183L0 183L0 157L0 157L0 130L0 130L0 104L0 104L0 78L0 78L0 52L0 52L0 26L0 26L0 0L0 0Z" fill="#6300a5"></path><path d="M58 0L69 0L69 26L98 26L98 52L64 52L64 78L112 78L112 104L126 104L126 130L106 130L106 157L103 157L103 183L82 183L82 209L69 209L69 235L111 235L111 261L75 261L75 287L71 287L71 313L90 313L90 339L118 339L118 365L114 365L114 391L89 391L89 417L106 417L106 443L72 443L72 470L114 470L114 496L64 496L64 522L74 522L74 548L111 548L111 574L100 574L100 600L0 600L0 574L0 574L0 548L0 548L0 522L0 522L0 496L0 496L0 470L0 470L0 443L0 443L0 417L0 417L0 391L0 391L0 365L0 365L0 339L0 339L0 313L0 313L0 287L0 287L0 261L0 261L0 235L0 235L0 209L0 209L0 183L0 183L0 157L0 157L0 130L0 130L0 104L0 104L0 78L0 78L0 52L0 52L0 26L0 26L0 0L0 0Z" fill="#560090"></path></svg>