<svg id="visual" viewBox="0 0 900 600" width="900" height="600" xmlns="http://www.w3.org/2000/svg" xmlns:xlink="http://www.w3.org/1999/xlink" version="1.1"><path d="M0 85L82 85L82 49L164 49L164 73L245 73L245 67L327 67L327 115L409 115L409 121L491 121L491 121L573 121L573 55L655 55L655 115L736 115L736 109L818 109L818 115L900 115L900 55L900 0L900 0L818 0L818 0L736 0L736 0L655 0L655 0L573 0L573 0L491 0L491 0L409 0L409 0L327 0L327 0L245 0L245 0L164 0L164 0L82 0L82 0L0 0Z" fill="#fa7268"></path><path d="M0 163L82 163L82 115L164 115L164 151L245 151L245 139L327 139L327 187L409 187L409 163L491 163L491 199L573 199L573 103L655 103L655 157L736 157L736 145L818 145L818 211L900 211L900 103L900 53L900 113L818 113L818 107L736 107L736 113L655 113L655 53L573 53L573 119L491 119L491 119L409 119L409 113L327 113L327 65L245 65L245 71L164 71L164 47L82 47L82 83L0 83Z" fill="#ea5e66"></path><path d="M0 265L82 265L82 325L164 325L164 349L245 349L245 433L327 433L327 337L409 337L409 319L491 319L491 277L573 277L573 301L655 301L655 283L736 283L736 319L818 319L818 349L900 349L900 331L900 101L900 209L818 209L818 143L736 143L736 155L655 155L655 101L573 101L573 197L491 197L491 161L409 161L409 185L327 185L327 137L245 137L245 149L164 149L164 113L82 113L82 161L0 161Z" fill="#d84a64"></path><path d="M0 319L82 319L82 427L164 427L164 463L245 463L245 487L327 487L327 385L409 385L409 373L491 373L491 421L573 421L573 391L655 391L655 361L736 361L736 439L818 439L818 457L900 457L900 481L900 329L900 347L818 347L818 317L736 317L736 281L655 281L655 299L573 299L573 275L491 275L491 317L409 317L409 335L327 335L327 431L245 431L245 347L164 347L164 323L82 323L82 263L0 263Z" fill="#c53762"></path><path d="M0 601L82 601L82 601L164 601L164 601L245 601L245 601L327 601L327 601L409 601L409 601L491 601L491 601L573 601L573 601L655 601L655 601L736 601L736 601L818 601L818 601L900 601L900 601L900 479L900 455L818 455L818 437L736 437L736 359L655 359L655 389L573 389L573 419L491 419L491 371L409 371L409 383L327 383L327 485L245 485L245 461L164 461L164 425L82 425L82 317L0 317Z" fill="#b0235f"></path></svg>