<svg id="visual" viewBox="0 0 960 540" width="960" height="540" xmlns="http://www.w3.org/2000/svg" xmlns:xlink="http://www.w3.org/1999/xlink" version="1.1"><path d="M0 33L14.5 38.5C29 44 58 55 87.2 56C116.3 57 145.7 48 174.8 48C204 48 233 57 262 64.2C291 71.3 320 76.7 349 72.2C378 67.7 407 53.3 436.2 53.3C465.3 53.3 494.7 67.7 523.8 76.7C553 85.7 582 89.3 611 88.5C640 87.7 669 82.3 698 79.7C727 77 756 77 785.2 69.7C814.3 62.3 843.7 47.7 872.8 48.5C902 49.3 931 65.7 945.5 73.8L960 82L960 0L945.5 0C931 0 902 0 872.8 0C843.7 0 814.3 0 785.2 0C756 0 727 0 698 0C669 0 640 0 611 0C582 0 553 0 523.8 0C494.7 0 465.3 0 436.2 0C407 0 378 0 349 0C320 0 291 0 262 0C233 0 204 0 174.8 0C145.7 0 116.3 0 87.2 0C58 0 29 0 14.5 0L0 0Z" fill="#fa7268"></path><path d="M0 244L14.5 239.5C29 235 58 226 87.2 215.2C116.3 204.3 145.7 191.7 174.8 202.5C204 213.3 233 247.7 262 260.3C291 273 320 264 349 252.3C378 240.7 407 226.3 436.2 224.5C465.3 222.7 494.7 233.3 523.8 248.5C553 263.7 582 283.3 611 277C640 270.7 669 238.3 698 223.2C727 208 756 210 785.2 208.2C814.3 206.3 843.7 200.7 872.8 211.3C902 222 931 249 945.5 262.5L960 276L960 80L945.5 71.8C931 63.7 902 47.3 872.8 46.5C843.7 45.7 814.3 60.3 785.2 67.7C756 75 727 75 698 77.7C669 80.3 640 85.7 611 86.5C582 87.3 553 83.7 523.8 74.7C494.7 65.7 465.3 51.3 436.2 51.3C407 51.3 378 65.7 349 70.2C320 74.7 291 69.3 262 62.2C233 55 204 46 174.8 46C145.7 46 116.3 55 87.2 54C58 53 29 42 14.5 36.5L0 31Z" fill="#fb5487"></path><path d="M0 438L14.5 428.2C29 418.3 58 398.7 87.2 390.7C116.3 382.7 145.7 386.3 174.8 381.8C204 377.3 233 364.7 262 367.3C291 370 320 388 349 383.5C378 379 407 352 436.2 341.2C465.3 330.3 494.7 335.7 523.8 343.8C553 352 582 363 611 365.7C640 368.3 669 362.7 698 359C727 355.3 756 353.7 785.2 361C814.3 368.3 843.7 384.7 872.8 387.3C902 390 931 379 945.5 373.5L960 368L960 274L945.5 260.5C931 247 902 220 872.8 209.3C843.7 198.7 814.3 204.3 785.2 206.2C756 208 727 206 698 221.2C669 236.3 640 268.7 611 275C582 281.3 553 261.7 523.8 246.5C494.7 231.3 465.3 220.7 436.2 222.5C407 224.3 378 238.7 349 250.3C320 262 291 271 262 258.3C233 245.7 204 211.3 174.8 200.5C145.7 189.7 116.3 202.3 87.2 213.2C58 224 29 233 14.5 237.5L0 242Z" fill="#e645b0"></path><path d="M0 492L14.5 483C29 474 58 456 87.2 449.8C116.3 443.7 145.7 449.3 174.8 456.7C204 464 233 473 262 473.8C291 474.7 320 467.3 349 457.3C378 447.3 407 434.7 436.2 430.2C465.3 425.7 494.7 429.3 523.8 442.8C553 456.3 582 479.7 611 486.8C640 494 669 485 698 474.2C727 463.3 756 450.7 785.2 453.3C814.3 456 843.7 474 872.8 478.5C902 483 931 474 945.5 469.5L960 465L960 366L945.5 371.5C931 377 902 388 872.8 385.3C843.7 382.7 814.3 366.3 785.2 359C756 351.7 727 353.3 698 357C669 360.7 640 366.3 611 363.7C582 361 553 350 523.8 341.8C494.7 333.7 465.3 328.3 436.2 339.2C407 350 378 377 349 381.5C320 386 291 368 262 365.3C233 362.7 204 375.3 174.8 379.8C145.7 384.3 116.3 380.7 87.2 388.7C58 396.7 29 416.3 14.5 426.2L0 436Z" fill="#b050dc"></path><path d="M0 541L14.5 541C29 541 58 541 87.2 541C116.3 541 145.7 541 174.8 541C204 541 233 541 262 541C291 541 320 541 349 541C378 541 407 541 436.2 541C465.3 541 494.7 541 523.8 541C553 541 582 541 611 541C640 541 669 541 698 541C727 541 756 541 785.2 541C814.3 541 843.7 541 872.8 541C902 541 931 541 945.5 541L960 541L960 463L945.5 467.5C931 472 902 481 872.8 476.5C843.7 472 814.3 454 785.2 451.3C756 448.7 727 461.3 698 472.2C669 483 640 492 611 484.8C582 477.7 553 454.3 523.8 440.8C494.7 427.3 465.3 423.7 436.2 428.2C407 432.7 378 445.3 349 455.3C320 465.3 291 472.7 262 471.8C233 471 204 462 174.8 454.7C145.7 447.3 116.3 441.7 87.2 447.8C58 454 29 472 14.5 481L0 490Z" fill="#0066ff"></path></svg>