<svg id="visual" viewBox="0 0 1200 1200" width="1200" height="1200" xmlns="http://www.w3.org/2000/svg" xmlns:xlink="http://www.w3.org/1999/xlink" version="1.1"><path d="M0 277L100 277L100 457L200 457L200 289L300 289L300 337L400 337L400 361L500 361L500 361L600 361L600 289L700 289L700 397L800 397L800 421L900 421L900 337L1000 337L1000 373L1100 373L1100 397L1200 397L1200 313L1200 0L1200 0L1100 0L1100 0L1000 0L1000 0L900 0L900 0L800 0L800 0L700 0L700 0L600 0L600 0L500 0L500 0L400 0L400 0L300 0L300 0L200 0L200 0L100 0L100 0L0 0Z" fill="#b0235f"></path><path d="M0 421L100 421L100 577L200 577L200 445L300 445L300 517L400 517L400 529L500 529L500 529L600 529L600 409L700 409L700 505L800 505L800 589L900 589L900 469L1000 469L1000 469L1100 469L1100 529L1200 529L1200 445L1200 311L1200 395L1100 395L1100 371L1000 371L1000 335L900 335L900 419L800 419L800 395L700 395L700 287L600 287L600 359L500 359L500 359L400 359L400 335L300 335L300 287L200 287L200 455L100 455L100 275L0 275Z" fill="#c53762"></path><path d="M0 553L100 553L100 697L200 697L200 613L300 613L300 661L400 661L400 721L500 721L500 661L600 661L600 529L700 529L700 709L800 709L800 721L900 721L900 601L1000 601L1000 625L1100 625L1100 733L1200 733L1200 625L1200 443L1200 527L1100 527L1100 467L1000 467L1000 467L900 467L900 587L800 587L800 503L700 503L700 407L600 407L600 527L500 527L500 527L400 527L400 515L300 515L300 443L200 443L200 575L100 575L100 419L0 419Z" fill="#d84a64"></path><path d="M0 973L100 973L100 973L200 973L200 1021L300 1021L300 1033L400 1033L400 997L500 997L500 973L600 973L600 913L700 913L700 1033L800 1033L800 997L900 997L900 925L1000 925L1000 937L1100 937L1100 1009L1200 1009L1200 925L1200 623L1200 731L1100 731L1100 623L1000 623L1000 599L900 599L900 719L800 719L800 707L700 707L700 527L600 527L600 659L500 659L500 719L400 719L400 659L300 659L300 611L200 611L200 695L100 695L100 551L0 551Z" fill="#ea5e66"></path><path d="M0 1201L100 1201L100 1201L200 1201L200 1201L300 1201L300 1201L400 1201L400 1201L500 1201L500 1201L600 1201L600 1201L700 1201L700 1201L800 1201L800 1201L900 1201L900 1201L1000 1201L1000 1201L1100 1201L1100 1201L1200 1201L1200 1201L1200 923L1200 1007L1100 1007L1100 935L1000 935L1000 923L900 923L900 995L800 995L800 1031L700 1031L700 911L600 911L600 971L500 971L500 995L400 995L400 1031L300 1031L300 1019L200 1019L200 971L100 971L100 971L0 971Z" fill="#fa7268"></path></svg>