<svg id="visual" viewBox="0 0 900 600" width="900" height="600" xmlns="http://www.w3.org/2000/svg" xmlns:xlink="http://www.w3.org/1999/xlink" version="1.1"><rect x="0" y="0" width="900" height="600" fill="#140021"></rect><path d="M481 0L481 0L481 86L481 86L481 171L481 171L481 257L481 257L481 343L481 343L481 429L481 429L481 514L481 514L481 600L0 600L0 514L0 514L0 429L0 429L0 343L0 343L0 257L0 257L0 171L0 171L0 86L0 86L0 0L0 0Z" fill="#9900ff"></path><path d="M414 0L414 0L414 86L414 86L414 171L414 171L414 257L414 257L414 343L414 343L414 429L414 429L414 514L414 514L414 600L0 600L0 514L0 514L0 429L0 429L0 343L0 343L0 257L0 257L0 171L0 171L0 86L0 86L0 0L0 0Z" fill="#8e00ec"></path><path d="M348 0L348 0L348 86L348 86L348 171L348 171L348 257L348 257L348 343L348 343L348 429L348 429L348 514L348 514L348 600L0 600L0 514L0 514L0 429L0 429L0 343L0 343L0 257L0 257L0 171L0 171L0 86L0 86L0 0L0 0Z" fill="#8200d9"></path><path d="M281 0L281 0L281 86L281 86L281 171L281 171L281 257L281 257L281 343L281 343L281 429L281 429L281 514L281 514L281 600L0 600L0 514L0 514L0 429L0 429L0 343L0 343L0 257L0 257L0 171L0 171L0 86L0 86L0 0L0 0Z" fill="#7700c6"></path><path d="M214 0L214 0L214 86L214 86L214 171L214 171L214 257L214 257L214 343L214 343L214 429L214 429L214 514L214 514L214 600L0 600L0 514L0 514L0 429L0 429L0 343L0 343L0 257L0 257L0 171L0 171L0 86L0 86L0 0L0 0Z" fill="#6c00b4"></path><path d="M147 0L147 0L147 86L147 86L147 171L147 171L147 257L147 257L147 343L147 343L147 429L147 429L147 514L147 514L147 600L0 600L0 514L0 514L0 429L0 429L0 343L0 343L0 257L0 257L0 171L0 171L0 86L0 86L0 0L0 0Z" fill="#6100a2"></path><path d="M80 0L80 0L80 86L80 86L80 171L80 171L80 257L80 257L80 343L80 343L80 429L80 429L80 514L80 514L80 600L0 600L0 514L0 514L0 429L0 429L0 343L0 343L0 257L0 257L0 171L0 171L0 86L0 86L0 0L0 0Z" fill="#560090"></path></svg>