<svg id="visual" viewBox="0 0 900 1200" width="900" height="1200" xmlns="http://www.w3.org/2000/svg" xmlns:xlink="http://www.w3.org/1999/xlink" version="1.1"><rect x="0" y="0" width="900" height="1200" fill="#140021"></rect><path d="M481 0L481 0L481 171L481 171L481 343L481 343L481 514L481 514L481 686L481 686L481 857L481 857L481 1029L481 1029L481 1200L0 1200L0 1029L0 1029L0 857L0 857L0 686L0 686L0 514L0 514L0 343L0 343L0 171L0 171L0 0L0 0Z" fill="#9900ff"></path><path d="M414 0L414 0L414 171L414 171L414 343L414 343L414 514L414 514L414 686L414 686L414 857L414 857L414 1029L414 1029L414 1200L0 1200L0 1029L0 1029L0 857L0 857L0 686L0 686L0 514L0 514L0 343L0 343L0 171L0 171L0 0L0 0Z" fill="#8e00ec"></path><path d="M348 0L348 0L348 171L348 171L348 343L348 343L348 514L348 514L348 686L348 686L348 857L348 857L348 1029L348 1029L348 1200L0 1200L0 1029L0 1029L0 857L0 857L0 686L0 686L0 514L0 514L0 343L0 343L0 171L0 171L0 0L0 0Z" fill="#8200d9"></path><path d="M281 0L281 0L281 171L281 171L281 343L281 343L281 514L281 514L281 686L281 686L281 857L281 857L281 1029L281 1029L281 1200L0 1200L0 1029L0 1029L0 857L0 857L0 686L0 686L0 514L0 514L0 343L0 343L0 171L0 171L0 0L0 0Z" fill="#7700c6"></path><path d="M214 0L214 0L214 171L214 171L214 343L214 343L214 514L214 514L214 686L214 686L214 857L214 857L214 1029L214 1029L214 1200L0 1200L0 1029L0 1029L0 857L0 857L0 686L0 686L0 514L0 514L0 343L0 343L0 171L0 171L0 0L0 0Z" fill="#6c00b4"></path><path d="M147 0L147 0L147 171L147 171L147 343L147 343L147 514L147 514L147 686L147 686L147 857L147 857L147 1029L147 1029L147 1200L0 1200L0 1029L0 1029L0 857L0 857L0 686L0 686L0 514L0 514L0 343L0 343L0 171L0 171L0 0L0 0Z" fill="#6100a2"></path><path d="M80 0L80 0L80 171L80 171L80 343L80 343L80 514L80 514L80 686L80 686L80 857L80 857L80 1029L80 1029L80 1200L0 1200L0 1029L0 1029L0 857L0 857L0 686L0 686L0 514L0 514L0 343L0 343L0 171L0 171L0 0L0 0Z" fill="#560090"></path></svg>